<?xml version="1.0" encoding="UTF-8"?><svg id="Layer_1" xmlns="http://www.w3.org/2000/svg" viewBox="0 0 1006.82 762"><defs><style>.cls-1{fill:#f2f2f2;}.cls-2{fill:#fbbebe;}.cls-3{fill:#a0616a;}.cls-4{fill:#3f3d56;}.cls-5{fill:#38bae5;}.cls-6{fill:#57b894;}.cls-7{fill:#2f2e41;}.cls-8{isolation:isolate;opacity:.1;}</style></defs><path class="cls-1" d="M964.82,313v-117h-65V120h-44v76h-65v117h-36V50h-73V25h-97V0h-96V25h-91v25h-79V312h-42v-117h-65V119h-44v76H102.82v117H60.82v415h96v-147h66v147H480.82v-171h112v171h156v1h96v-147h66v147h96V313h-42ZM95.32,363h38v30h-38v-30Zm.5,84h38v30h-38v-30Zm38.5,114h-38v-30h38v30Zm99.5-271h-88v-18h88v18Zm0-26h-88v-18h88v18Zm0-26h-88v-18h88v18Zm12.5,125h38v30h-38v-30Zm.5,84h38v30h-38v-30Zm38.5,114h-38v-30h38v30Zm155.5-50h-70v-31h70v31Zm0-89h-70v-31h70v31Zm0-89h-70v-31h70v31Zm0-89h-70v-31h70v31Zm0-89h-70v-31h70v31Zm131,356h-70v-31h70v31Zm0-89h-70v-31h70v31Zm0-89h-70v-31h70v31Zm0-89h-70v-31h70v31Zm0-89h-70v-31h70v31Zm131,356h-70v-31h70v31Zm0-89h-70v-31h70v31Zm0-89h-70v-31h70v31Zm0-89h-70v-31h70v31Zm0-89h-70v-31h70v31Zm80.5,209h38v30h-38v-30Zm.5,84h38v30h-38v-30Zm38.5,114h-38v-30h38v30Zm99.5-271h-88v-18h88v18Zm0-26h-88v-18h88v18Zm0-26h-88v-18h88v18Zm12.5,125h38v30h-38v-30Zm.5,84h38v30h-38v-30Zm38.5,114h-38v-30h38v30Z"/><path class="cls-5" d="M120.01,625.71c-.28,3.96-.72,8.38-1.39,13.03l12.23-13.56,.07,.23c-.75-3.26-1.95-6.4-3.58-9.33l.08,.21-7.4,9.42Z"/><path class="cls-5" d="M120.06,625.02l7.17-9.12c-1.53-2.78-3.73-5.13-6.41-6.83-.13-.08-.26-.15-.4-.22,.04,1.08,.23,7.4-.36,16.18Z"/><path class="cls-5" d="M113.59,660.78c-.32,.96-.64,1.9-.98,2.83l18-10.56,.03,.26c.38-1.64,.69-3.28,.94-4.92l-17.98,12.51-.02-.12Z"/><path class="cls-5" d="M116.1,651.92l16.22-13.37,.05,.25c.06-4.42-.41-8.83-1.39-13.15l-12.46,13.82c-.65,4.35-1.46,8.51-2.41,12.45Z"/><path class="cls-5" d="M118.23,639.21l-19.4-21.65,.1-.24c-1.82,2.57-3.38,5.31-4.66,8.2l22.14,23.57c.76-3.44,1.35-6.77,1.81-9.88Z"/><path class="cls-5" d="M94.07,625.99h0c.04-.08,.07-.17,.1-.25l-.1,.25Z"/><path class="cls-5" d="M92.99,628.65l-.1,.25c.03-.09,.07-.16,.1-.25h0Z"/><path class="cls-5" d="M116.29,649.66l-22.22-23.66c-.38,.86-.74,1.75-1.08,2.66l22.71,23.51c.21-.84,.4-1.67,.59-2.5Z"/><path class="cls-5" d="M131.63,648.08c.44-2.98,.68-5.98,.72-8.99l-16.43,13.55c-.65,2.63-1.37,5.16-2.15,7.58l17.83-12.41,.03,.26Z"/><path class="cls-5" d="M90.04,649.76l17.99,23.47c1.48-2.86,2.78-5.8,3.91-8.81l-21.95-23.05c-.22,2.88-.24,5.78-.07,8.66l.12-.26Z"/><path class="cls-5" d="M120.09,608.81l.16-.07c-3.94-2.1-8.2-1.88-12.29,.26l11.78,16c.63-9.5,.35-16.09,.35-16.19Z"/><path class="cls-5" d="M112.03,665.18c-1.03,2.71-2.21,5.36-3.53,7.95l18.09-9.36,.02,.26c1.36-2.3,2.43-4.77,3.17-7.34,.29-1.01,.55-2.03,.79-3.04l-18.22,10.68c-.11,.29-.21,.57-.32,.86Z"/><path class="cls-5" d="M119.7,625.71l-12.05-16.37,.11-.23c-3.45,2-6.41,4.73-8.68,8.01l19.24,21.47c.67-4.6,1.1-8.97,1.37-12.88Z"/><path class="cls-5" d="M112.14,663.89c1.34-3.66,2.49-7.39,3.43-11.17l-22.77-23.57c-.54,1.47-1.04,3-1.49,4.59-.63,2.28-1.05,4.61-1.26,6.97l22.07,23.19h.02Z"/><path class="cls-5" d="M135.52,689.32c-2.74,2.87-5.9,6-9.38,9.15l18.06-2.65-.09,.22c1.51-2.99,2.58-6.18,3.2-9.47l-.08,.22-11.71,2.53Z"/><path class="cls-5" d="M146.76,677c-.05-.14-.11-.28-.16-.43-.66,.85-4.55,5.85-10.6,12.23l11.34-2.45c.6-3.12,.4-6.33-.58-9.35Z"/><path class="cls-5" d="M108.21,712.23c-.85,.54-1.71,1.06-2.55,1.55l20.6,3.35-.15,.22c1.34-1.02,2.62-2.09,3.86-3.19l-21.83-1.83,.06-.1Z"/><path class="cls-5" d="M115.79,707.01l21.02,.04-.12,.22c2.86-3.37,5.32-7.07,7.31-11.01l-18.41,2.7c-3.28,2.94-6.55,5.62-9.8,8.05Z"/><path class="cls-5" d="M108.7,711.92l21.64,1.82-.14,.22c2.24-2.01,4.34-4.17,6.29-6.46l-21.3-.04c-2.18,1.61-4.34,3.1-6.49,4.47Z"/><path class="cls-5" d="M82.19,722.63c.15-.16,.32-.32,.48-.49,4.41-.7,8.73-1.94,12.84-3.67l.59-15.6c.17-.4,.34-.8,.51-1.2l-.63,16.6c2.96-1.26,5.84-2.69,8.63-4.29l-2.01-29c.15-.08,.31-.16,.47-.25l2.01,28.96h.02c3.37-1.96,6.63-4.1,9.76-6.42l-2.19-28.54c.15-.11,.31-.22,.46-.34l2.19,28.53c.69-.51,1.38-1.03,2.05-1.55l-1.81-28.89c.15-.13,.31-.25,.46-.38l1.81,28.91c2.78-2.17,5.36-4.35,7.7-6.45l-1.14-29.05,.24-.12c-.81,.21-1.63,.46-2.45,.73,1.55-1.78,2.95-3.68,4.18-5.7l-18.27,9.45c-1.26,2.4-2.69,4.72-4.26,6.93-.33,.31-.65,.62-.97,.94l.02,.35c-.15,.2-.3,.39-.45,.59l-.03-.47c-.23,.24-.46,.49-.68,.73,2.31-2.89,4.34-5.99,6.06-9.27l-17.86-23.3c.12,2.08,.33,4.18,.59,6.26-1.66-2.7-3.67-5.16-5.99-7.31l.14,.18-4.13,11.24c.96,3.85,1.91,8.19,2.7,12.82l7.33-16.44c.03,.26,.07,.51,.1,.77l-7.32,16.4c.72,4.34,1.24,8.54,1.55,12.59l8.78-13.79c.05,.2,.1,.4,.15,.59l-8.88,13.94c.19,2.7,.29,5.33,.3,7.87l10.73-14.16c.06,.19,.11,.37,.17,.55l-10.85,14.31-.05-.11c0,1.01-.02,2.01-.05,2.99l12.11-13.63c.06,.19,.12,.36,.18,.52l-12.32,13.87c-.01,.3-.02,.61-.04,.91-.14,2.9-.45,5.78-.9,8.65l1.17-1.18c-.22,.46-.44,.91-.65,1.36l-.66,.67c-.08,.44-.16,.87-.25,1.3-.25,.54-.48,1.06-.71,1.58,.22-.98,.42-1.97,.6-2.97l-24.18-16.64c6.31,16.14,18.19,31.5,18.95,32.47,.62-1.15,1.18-2.34,1.69-3.55,.15-.01,.3-.03,.45-.04-.06,.15-.13,.3-.19,.44-.08,0-.15,.02-.23,.03,.06,.02,.13,.04,.19,.05-.36,.85-.74,1.68-1.14,2.48,.53-.47,1.33-1.22,2.29-2.18,5.69,1.45,21.01,4.56,34.12-.03l-20.1-4.37c-4.3,1.82-8.81,3.1-13.43,3.8Zm14.12-25.43l.48-.49-.03,.73-.48,.49,.03-.73Z"/><path class="cls-5" d="M146.36,676.35l.17,.05c-1.69-4.13-5.12-6.68-9.63-7.64l-1.13,19.84c6.55-6.91,10.54-12.17,10.59-12.24Z"/><path class="cls-5" d="M104.2,714.62c-2.52,1.43-5.12,2.72-7.79,3.87l19.91,4.33-.15,.21c2.52-.9,4.91-2.12,7.13-3.63,.87-.6,1.72-1.21,2.55-1.84l-20.85-3.39c-.26,.15-.53,.31-.79,.46Z"/><path class="cls-5" d="M126.01,698.16c3.45-3.12,6.57-6.21,9.27-9.04l1.16-20.29,.24-.11c-3.93-.66-7.96-.45-11.79,.63l1.13,28.81Z"/><path class="cls-5" d="M84.38,649.19c-2.31-2.18-5.14-3.73-8.21-4.52-.15-.03-.3-.06-.45-.09,.37,1.01,2.5,6.97,4.66,15.5l4-10.89Z"/><path class="cls-5" d="M83.03,674.14l-25.14-14.59,.02-.26c-.94,3.01-1.58,6.1-1.89,9.23l28.34,15.58c-.34-3.51-.81-6.86-1.33-9.95Z"/><path class="cls-5" d="M55.96,669.05h0c0-.09,.01-.18,.02-.27l-.02,.27Z"/><path class="cls-5" d="M55.76,671.91l-.02,.27c0-.09,.01-.18,.02-.27h0Z"/><path class="cls-5" d="M84.41,684.68l-28.45-15.63c-.09,.93-.16,1.89-.21,2.86l28.87,15.34c-.06-.86-.13-1.72-.21-2.56Z"/><path class="cls-5" d="M84.84,700.07l-28-15.14c.68,2.81,1.56,5.57,2.61,8.26l.04-.29,24.36,16.76c.52-3.17,.85-6.38,.99-9.59Z"/><path class="cls-5" d="M75.41,644.66l.13-.12c-4.4-.78-8.38,.75-11.61,4.04l16.15,11.58c-2.33-9.23-4.64-15.41-4.67-15.5Z"/><path class="cls-5" d="M80.25,660.85l-16.52-11.84,.04-.26c-2.66,2.96-4.64,6.48-5.78,10.3l24.94,14.47c-.79-4.58-1.73-8.87-2.68-12.67Z"/><path class="cls-5" d="M84.86,699.5c.14-3.9,.08-7.8-.2-11.68l-28.94-15.37c-.06,1.57-.06,3.18,0,4.83,.11,2.36,.43,4.71,.96,7.02l28.16,15.23h.01Z"/><path class="cls-5" d="M976.01,622.71c-.28,3.96-.72,8.38-1.39,13.03l12.23-13.56,.07,.23c-.75-3.26-1.95-6.4-3.58-9.33l.08,.21-7.4,9.42Z"/><path class="cls-5" d="M976.06,622.02l7.17-9.12c-1.53-2.78-3.73-5.13-6.41-6.83-.13-.08-.26-.15-.4-.22,.04,1.08,.23,7.4-.36,16.18Z"/><path class="cls-5" d="M969.59,657.78c-.32,.96-.64,1.9-.98,2.83l18-10.56,.03,.26c.38-1.64,.69-3.28,.94-4.92l-17.98,12.51-.02-.12Z"/><path class="cls-5" d="M972.1,648.92l16.22-13.37,.05,.25c.06-4.42-.41-8.83-1.39-13.15l-12.46,13.82c-.65,4.35-1.46,8.51-2.41,12.45Z"/><path class="cls-5" d="M974.23,636.21l-19.4-21.65,.1-.24c-1.82,2.57-3.38,5.31-4.66,8.2l22.14,23.57c.76-3.44,1.35-6.77,1.81-9.88Z"/><path class="cls-5" d="M950.07,622.99h0c.04-.08,.07-.17,.1-.25l-.1,.25Z"/><path class="cls-5" d="M972.29,646.66l-22.22-23.66c-.38,.86-.74,1.75-1.08,2.66l22.71,23.51c.21-.84,.4-1.67,.59-2.5Z"/><path class="cls-5" d="M948.99,625.65l-.1,.25c.03-.09,.07-.16,.1-.25h0Z"/><path class="cls-5" d="M987.63,645.08c.44-2.98,.68-5.98,.72-8.99l-16.43,13.55c-.65,2.63-1.37,5.16-2.15,7.58l17.83-12.41,.03,.26Z"/><path class="cls-5" d="M946.04,646.76l17.99,23.47c1.48-2.86,2.78-5.8,3.91-8.81l-21.95-23.05c-.22,2.88-.24,5.78-.07,8.66l.12-.26Z"/><path class="cls-5" d="M976.09,605.81l.16-.07c-3.94-2.1-8.2-1.88-12.29,.26l11.78,16c.63-9.5,.35-16.09,.35-16.19Z"/><path class="cls-5" d="M968.03,662.18c-1.03,2.71-2.21,5.36-3.53,7.95l18.09-9.36,.02,.26c1.36-2.3,2.43-4.77,3.17-7.34,.29-1.01,.55-2.03,.79-3.04l-18.22,10.68c-.11,.29-.21,.57-.32,.86Z"/><path class="cls-5" d="M975.7,622.71l-12.05-16.37,.11-.23c-3.45,2-6.41,4.73-8.68,8.01l19.24,21.47c.67-4.6,1.1-8.97,1.37-12.88Z"/><path class="cls-5" d="M968.14,660.89c1.34-3.66,2.49-7.39,3.43-11.17l-22.77-23.57c-.54,1.47-1.04,3-1.49,4.59-.63,2.28-1.05,4.61-1.26,6.97l22.07,23.19h.02Z"/><path class="cls-5" d="M991.52,686.32c-2.74,2.87-5.9,6-9.38,9.15l18.06-2.65-.09,.22c1.51-2.99,2.58-6.18,3.2-9.47l-.08,.22-11.71,2.53Z"/><path class="cls-5" d="M1002.76,674c-.05-.14-.11-.28-.16-.43-.66,.85-4.55,5.85-10.6,12.23l11.34-2.45c.6-3.12,.4-6.33-.58-9.35Z"/><path class="cls-5" d="M964.21,709.23c-.85,.54-1.71,1.06-2.55,1.55l20.6,3.35-.15,.22c1.34-1.02,2.62-2.09,3.86-3.19l-21.83-1.83,.06-.1Z"/><path class="cls-5" d="M971.79,704.01l21.02,.04-.12,.22c2.86-3.37,5.32-7.07,7.31-11.01l-18.41,2.7c-3.28,2.94-6.55,5.62-9.8,8.05Z"/><path class="cls-5" d="M964.7,708.92l21.64,1.82-.14,.22c2.24-2.01,4.34-4.17,6.29-6.46l-21.3-.04c-2.18,1.61-4.34,3.1-6.49,4.47Z"/><path class="cls-5" d="M938.19,719.63c.15-.16,.32-.32,.48-.49,4.41-.7,8.73-1.94,12.84-3.67l.59-15.6c.17-.4,.34-.8,.51-1.2l-.63,16.6c2.96-1.26,5.84-2.69,8.63-4.29l-2.01-29c.16-.08,.31-.16,.47-.25l2.01,28.96h.02c3.37-1.96,6.63-4.1,9.76-6.42l-2.19-28.54c.16-.11,.31-.22,.46-.34l2.19,28.53c.69-.51,1.38-1.03,2.05-1.55l-1.81-28.89c.15-.13,.31-.25,.46-.38l1.81,28.91c2.78-2.17,5.36-4.35,7.7-6.45l-1.14-29.05,.24-.12c-.81,.21-1.63,.46-2.45,.73,1.55-1.78,2.95-3.68,4.18-5.7l-18.27,9.45c-1.26,2.4-2.69,4.72-4.26,6.93-.33,.31-.65,.62-.97,.94l.02,.35c-.15,.2-.3,.39-.45,.59l-.03-.47c-.23,.24-.46,.49-.68,.73,2.31-2.89,4.34-5.99,6.06-9.27l-17.86-23.3c.12,2.08,.33,4.18,.59,6.26-1.66-2.7-3.67-5.16-5.99-7.31l.14,.18-4.13,11.24c.96,3.85,1.91,8.19,2.7,12.82l7.33-16.44c.03,.26,.07,.51,.1,.77l-7.32,16.4c.72,4.34,1.24,8.54,1.55,12.59l8.78-13.79c.05,.2,.1,.4,.15,.59l-8.88,13.94c.19,2.7,.29,5.33,.3,7.87l10.73-14.16c.06,.19,.11,.37,.17,.55l-10.85,14.31-.05-.11c0,1.01-.02,2.01-.05,2.99l12.11-13.63c.06,.19,.12,.36,.18,.52l-12.32,13.87c-.01,.3-.02,.61-.04,.91-.14,2.9-.45,5.78-.9,8.65l1.17-1.18c-.22,.46-.44,.91-.65,1.36l-.66,.67c-.08,.44-.16,.87-.25,1.3-.25,.54-.48,1.06-.71,1.58,.22-.98,.42-1.97,.6-2.97l-24.18-16.64c6.31,16.14,18.19,31.5,18.95,32.47,.62-1.15,1.18-2.34,1.69-3.55,.15-.01,.3-.03,.45-.04-.06,.15-.13,.3-.19,.44-.08,0-.15,.02-.23,.03,.06,.02,.13,.04,.19,.05-.36,.85-.74,1.68-1.14,2.48,.53-.47,1.33-1.22,2.29-2.18,5.69,1.45,21.01,4.56,34.12-.03l-20.1-4.37c-4.3,1.82-8.81,3.1-13.43,3.8Zm14.12-25.43l.48-.49-.03,.73-.48,.49,.03-.73Z"/><path class="cls-5" d="M1002.36,673.35l.17,.05c-1.69-4.13-5.12-6.68-9.63-7.64l-1.13,19.84c6.55-6.91,10.54-12.17,10.59-12.24Z"/><path class="cls-5" d="M960.2,711.62c-2.52,1.43-5.12,2.72-7.79,3.87l19.91,4.33-.15,.21c2.52-.9,4.91-2.12,7.13-3.63,.87-.6,1.72-1.21,2.55-1.84l-20.85-3.39c-.26,.15-.53,.31-.79,.46Z"/><path class="cls-5" d="M982.01,695.16c3.44-3.12,6.57-6.21,9.27-9.04l1.16-20.29,.24-.11c-3.93-.66-7.96-.45-11.79,.63l1.13,28.81Z"/><path class="cls-5" d="M940.38,646.19c-2.31-2.18-5.14-3.73-8.21-4.52-.15-.03-.3-.06-.45-.09,.37,1.01,2.5,6.97,4.66,15.5l4-10.89Z"/><path class="cls-5" d="M939.03,671.14l-25.14-14.59,.02-.26c-.94,3.01-1.58,6.1-1.89,9.23l28.34,15.58c-.34-3.51-.81-6.86-1.33-9.95Z"/><path class="cls-5" d="M911.76,668.91l-.02,.27c0-.09,.01-.18,.02-.27h0Z"/><path class="cls-5" d="M911.96,666.05h0c0-.09,.01-.18,.02-.27l-.02,.27Z"/><path class="cls-5" d="M940.41,681.68l-28.45-15.63c-.09,.93-.16,1.89-.21,2.86l28.87,15.34c-.06-.86-.13-1.72-.21-2.56Z"/><path class="cls-5" d="M940.84,697.07l-28-15.14c.68,2.81,1.56,5.57,2.61,8.26l.04-.29,24.36,16.76c.52-3.17,.85-6.38,.99-9.59Z"/><path class="cls-5" d="M931.41,641.66l.13-.12c-4.4-.78-8.38,.75-11.61,4.04l16.15,11.58c-2.33-9.23-4.64-15.41-4.67-15.5Z"/><path class="cls-5" d="M936.25,657.85l-16.52-11.84,.04-.26c-2.66,2.96-4.64,6.48-5.78,10.3l24.94,14.47c-.79-4.58-1.73-8.87-2.68-12.67Z"/><path class="cls-5" d="M940.86,696.5c.14-3.9,.08-7.8-.19-11.68l-28.94-15.37c-.06,1.57-.06,3.18,0,4.83,.11,2.36,.43,4.71,.96,7.02l28.16,15.23h.01Z"/><path class="cls-7" d="M60.82,727H1006.82v13.54c0,11.85-9.61,21.46-21.46,21.46H82.29c-11.85,0-21.46-9.61-21.46-21.46h0v-13.54h0Z"/><rect class="cls-4" x="60.82" y="716" width="946" height="19"/><path class="cls-1" d="M793.97,65.97l10.86,6.89-6.6-11.99c1.87-1.49,4.18-2.32,6.57-2.35,.06,0,.12,0,.17,0,.75,.01,1.51-.04,2.25-.17l3.68,2.33-1.58-2.87c2.61-.91,4.86-2.62,6.44-4.89l6.59,4.18-4.16-7.57c3.85-4.63,9.05-7.46,14.76-7.46,6.85,0,12.96,4.08,16.9,10.43,2.37,3.87,6.64,6.17,11.17,6.02,.12,0,.25,0,.37,0,7.57,0,13.7,8.58,13.7,19.16s-6.13,19.16-13.7,19.16c-1.66,0-3.3-.42-4.77-1.19-5.21-2.53-11.27-2.65-16.58-.32-4.48,2.01-9.61,2.03-14.1,.03-5.26-2.28-11.26-2.17-16.43,.32-1.46,.76-3.08,1.16-4.72,1.17-7.57,0-13.7-8.58-13.7-19.16-.04-4.08,.94-8.11,2.86-11.71Z"/><path class="cls-1" d="M241.21,122.24l6.91,4.38-4.2-7.63c1.19-.95,2.66-1.47,4.18-1.49,.04,0,.07,0,.11,0,.48,0,.96-.03,1.43-.11l2.34,1.49-1-1.83c1.66-.58,3.09-1.67,4.1-3.11l4.19,2.66-2.65-4.82c2.26-2.91,5.71-4.66,9.39-4.75,4.36,0,8.24,2.59,10.75,6.63,1.51,2.46,4.22,3.92,7.11,3.83,.08,0,.16,0,.23,0,4.81,0,8.71,5.46,8.71,12.19s-3.9,12.19-8.71,12.19c-1.06,0-2.1-.26-3.04-.76-3.32-1.61-7.17-1.69-10.55-.21-2.85,1.28-6.11,1.29-8.97,.02-3.35-1.45-7.16-1.38-10.45,.2-.93,.48-1.96,.74-3,.74-4.81,0-8.71-5.46-8.71-12.19-.03-2.6,.6-5.16,1.82-7.45Z"/><path class="cls-1" d="M55.21,145.74l6.91,4.38-4.2-7.63c1.19-.95,2.66-1.47,4.18-1.49,.04,0,.07,0,.11,0,.48,0,.96-.03,1.43-.11l2.34,1.49-1-1.83c1.66-.58,3.09-1.67,4.1-3.11l4.19,2.66-2.65-4.82c2.26-2.91,5.71-4.66,9.39-4.75,4.36,0,8.24,2.59,10.75,6.63,1.51,2.46,4.22,3.92,7.11,3.83,.08,0,.16,0,.23,0,4.81,0,8.71,5.46,8.71,12.19s-3.9,12.19-8.71,12.19c-1.06,0-2.1-.26-3.04-.76-3.32-1.61-7.17-1.69-10.55-.21-2.85,1.28-6.11,1.29-8.97,.02-3.35-1.45-7.16-1.38-10.45,.2-.93,.48-1.96,.74-3,.74-4.81,0-8.71-5.46-8.71-12.19-.03-2.6,.6-5.16,1.82-7.45Z"/><path class="cls-5" d="M304.73,596.86l-1.21,1.21s.4,13.28,.8,16.09,2.01,7.65,.8,11.27-1.61,6.44-1.21,6.84-.4,2.01-.4,2.01l3.22-2.01,5.23-12.07-2.41-12.88-4.83-10.46Z"/><path class="cls-8" d="M304.73,596.86l-1.21,1.21s.4,13.28,.8,16.09,2.01,7.65,.8,11.27-1.61,6.44-1.21,6.84-.4,2.01-.4,2.01l3.22-2.01,5.23-12.07-2.41-12.88-4.83-10.46Z"/><path class="cls-5" d="M326.06,722s0-4.43-.8-5.23-2.01-3.62-3.62-3.62-7.24,1.61-7.24,2.01c.05,1.26-.23,2.5-.8,3.62-.8,1.21-5.23,6.04-.8,6.84,2.97,.49,6.02-.24,8.45-2.01,.4-.4,2.01-.8,2.41-.4s2.41-1.21,2.41-1.21Z"/><path class="cls-5" d="M337.33,714.76l2.41,4.43s.8,4.02,2.01,4.43h1.21s1.21,4.43,4.02,4.02,6.04-2.01,6.04-2.82,0-3.22-1.21-4.02c-1.69-1.38-3.3-2.86-4.83-4.43l-2.01-2.01-7.65,.4Z"/><path class="cls-7" d="M306.45,567.37c-1.57,.8-2.66,2.32-2.91,4.06-.22,2.87,2.62,5.58,1.7,8.31-.52,1.55-2.13,2.56-2.6,4.12-.24,1.25-.06,2.55,.52,3.68,.64,1.56,1.41,3.05,2.31,4.47,1.7,2.66,3.9,5.19,4.36,8.31,.25,1.11-.04,2.27-.79,3.13,.82-.62,1.75-1.06,2.75-1.31,4.11-1.37,7.93-3.5,11.27-6.28,1.21-.85,2.12-2.06,2.61-3.46,.61-2.47-1.26-4.95-1.08-7.49,.12-1.63,1.05-3.06,1.58-4.6,.93-3.1,.56-6.44-1.03-9.26-1.32-2.73-3.69-4.8-6.58-5.72-2.2-.51-4.48-.44-6.65,.19-1.89,.39-3.72,1.01-5.47,1.83Z"/><path class="cls-5" d="M308.71,589.68c1.8-3.35,5.29-5.46,9.1-5.49,6.44,0,5.23-.4,5.23-.4l-2.01,8.05-4.02,4.02-8.3-6.18Z"/><path class="cls-2" d="M310.37,581.17s3.62,6.04,1.21,8.45-1.21,4.83-.8,5.23,11.67,1.21,11.67,1.21l.4-5.63,1.21-4.83s-6.44-1.21-5.63-4.02-8.05-.4-8.05-.4Z"/><path class="cls-8" d="M310.37,581.17s3.62,6.04,1.21,8.45-1.21,4.83-.8,5.23,11.67,1.21,11.67,1.21l.4-5.63,1.21-4.83s-6.44-1.21-5.63-4.02-8.05-.4-8.05-.4Z"/><path class="cls-2" d="M338.53,638.31c-.43,1.38-.97,2.73-1.61,4.02-.4,.4-1.61-2.82-1.61-2.82l1.21-2.82,2.01,1.61Z"/><polygon class="cls-2" points="333.91 620 335.51 629.26 311.37 629.26 312.58 620 333.91 620"/><circle class="cls-2" cx="314.79" cy="576.75" r="7.65"/><path class="cls-5" d="M316.4,592.44s-4.43,.4-4.43-.4-.4-3.22-1.21-2.82-6.04,.8-5.63,2.01,1.21,3.62,.4,3.62c-1.42,.29-2.33,1.67-2.04,3.09,0,.04,.02,.09,.03,.13,.4,2.01,4.83,14.08,4.83,14.08,0,0,.4,4.02,1.61,5.23,1.01,1.3,1.01,3.12,0,4.43-.8,.8,2.01,1.61,3.22,3.22s10.46,.4,10.86,0,10.06-.4,10.86-1.21-.4-3.22-.4-3.22c0,0-.4-3.62,0-4.83s-1.61-20.92-2.82-22.13,3.62-4.83,3.62-4.83c0,0-.8-3.22-6.04-3.62,0,0-1.61-2.41-3.22-2.41s-5.1,1.87-5.1,1.87c0,0-.93,5.37-2.14,5.77-.95,.47-1.78,1.16-2.41,2.01Z"/><path class="cls-5" d="M332.5,587.61l2.82,1.21s8.05,24.95,7.24,29.78-2.82,21.33-4.02,21.33-3.62-2.41-3.62-2.41v-4.02c0-.8-1.21-3.22-.4-3.22s2.01-.8,1.21-1.61-1.61-2.01-.8-3.22,1.21-1.61,.8-2.82-1.21-2.41-.4-3.22-2.01-4.83-2.01-4.83l-4.43-17.7,.8-7.24,2.82-2.01Z"/><path class="cls-7" d="M334.11,625.83s-15.29-1.21-17.3-1.21-6.53-1.89-6.53-1.89c0,0-11.58,11.55-7.56,30.46s4.83,42.25,7.24,49.09c1.64,4.88,2.98,9.85,4.02,14.89,0,0,4.02-7.24,11.67,.8,0,0,.8-6.04-.4-8.45s-2.82-15.29-2.82-15.29c0,0-2.82-20.52-2.82-22.94s-1.61-22.94-1.21-23.34,2.41,15.69,2.82,18.51,1.61,24.54,2.82,26.96,6.84,21.73,10.06,22.94,14.08-.4,13.68-1.21-3.22-5.23-4.02-6.44l-3.22-4.83-7.64-26.15,3.62-31.79s2.01-20.52-2.41-20.12Z"/><path class="cls-7" d="M319.45,575.74h-9.8c-.86,0-1.59-.63-1.72-1.47l-.97-6.17h15.29l-1.37,6.49c-.14,.67-.73,1.15-1.42,1.15Z"/><path class="cls-7" d="M824.73,573.83h15.47v22.1h0c-8.54,0-15.47-6.93-15.47-15.47h0v-6.63h0Z"/><polygon class="cls-3" points="815.71 703.29 814.6 708.82 822.33 708.82 822.7 703.29 815.71 703.29"/><path class="cls-5" d="M815.7,707.71s-1.47-1.1-2.21-.37-3.31,15.1-3.68,15.47-11.42,5.89-8.84,6.26,12.52,.74,14,0,5.52-7.73,5.52-7.73v6.26h.74s.74-6.63,2.58-8.47-1.47-8.1-1.47-8.1c0,0,.74-4.05,.37-4.05s-7,.74-7,.74Z"/><polygon class="cls-3" points="838.54 699.42 837.43 704.95 845.17 704.95 845.54 699.42 838.54 699.42"/><path class="cls-7" d="M829.7,663.52s3.68,11.05,4.42,12.15,3.31,21.73,3.31,21.73c0,0-2.58,4.05,.74,4.42s1.84-.74,4.05,0c1.22,.46,2.58,.32,3.68-.37,0,0,1.1-2.21,.37-2.95s.74-19.89,.74-19.89l-2.21-6.63-1.84-20.99s2.21-5.52,1.1-7-4.79,1.1-4.79,1.1l-9.58,18.42Z"/><path class="cls-7" d="M824.91,634.79s-1.1,11.79-1.84,12.52-8.84,21.36-8.84,21.36c0,0-2.21,2.58-1.47,12.15s2.58,19.15,2.58,19.15c0,0-1.47,5.52,1.1,5.52s3.68-1.47,4.79-.37,1.84,0,2.21-.74,1.84-3.31,1.84-4.05,1.47-19.52,1.47-19.52c0,0,12.15-26.89,13.26-28.36s7.37-9.58,7-15.1l-22.1-2.58Z"/><circle class="cls-3" cx="834.12" cy="577.33" r="7.73"/><path class="cls-3" d="M832.65,583.96s2.95,6.63,3.31,8.47,7.37-3.68,7.37-3.68c0,0-3.68-6.26-2.58-9.21l-8.1,4.42Z"/><path class="cls-4" d="M844.43,587.65s-5.52-4.05-9.58,4.42-5.16,8.1-5.16,8.1c0,0-4.79,1.47-3.31,11.79s-4.79,23.94-2.21,24.68,26.52,4.79,26.52,1.84-2.21-14.36-.37-21.36-2.58-31.31-5.89-29.46Z"/><path class="cls-4" d="M838.91,589.49s-4.42,6.63-4.05,11.79,.37,8.47,.37,8.47c0,0-7.37,35.36-5.89,35.36s5.89,1.84,6.26,.74,9.58-23.57,9.58-23.57c0,0,2.21-22.47-.37-27.62s-5.89-5.16-5.89-5.16Z"/><path class="cls-3" d="M830.07,644s-3.68,12.52,1.47,12.89,2.21-12.15,2.21-12.15l-3.68-.74Z"/><path class="cls-5" d="M839.87,702.08s-1.29-.97-1.94-.32-2.9,13.22-3.23,13.55-10,5.16-7.74,5.48,10.97,.65,12.26,0,4.84-6.77,4.84-6.77v5.48h.65s.65-5.81,2.26-7.42-1.29-7.1-1.29-7.1c0,0,.65-3.55,.32-3.55s-6.13,.65-6.13,.65Z"/><path class="cls-7" d="M830.3,572.27c.25-.3,.57-.53,.93-.66,.34-.06,.69-.03,1.02,.09,2.31,.67,4.31,2.13,5.67,4.12,.26,.51,.66,.93,1.14,1.24,.32,.09,.62,.21,.92,.35,.86,.57,.35,1.89-.15,2.79-1.27,2.33-1.85,4.97-1.69,7.62-.01,.46,.12,.91,.39,1.29,.42,.39,.96,.6,1.53,.61,1.79,.22,3.59,.32,5.39,.29,1.76-.03,3.72-.28,4.86-1.62,1.23-1.44,1.04-3.66,.24-5.37s-2.1-3.16-3.02-4.81c-.87-1.75-1.57-3.59-2.06-5.48-.64-2.42-1.67-4.71-3.04-6.79-1.41-2.1-3.62-3.52-6.11-3.92-3.35-.37-6.43,1.69-9.12,3.71-3.02,2.27-6.23,5.09-6.48,8.86-.2,3.06,1.64,5.82,2.6,8.73,1.48,4.49,.86,9.37,.22,14.05,2.73-1.63,5.81-3.9,5.63-7.08-.12-2.14-1.74-3.85-2.74-5.74-2.77-5.21,.39-8.7,3.88-12.27Z"/><path class="cls-4" d="M939.06,609.91c2.34-4.09,3.55-8.72,3.5-13.43,0-12.14-7.52-21.97-16.79-21.97s-16.79,9.84-16.79,21.97c-.05,4.71,1.16,9.34,3.5,13.43-4.67,8.34-4.67,18.51,0,26.86-4.67,8.34-4.67,18.51,0,26.86-4.67,8.34-4.67,18.51,0,26.86-2.34,4.09-3.55,8.72-3.5,13.43,0,12.14,7.52,21.97,16.79,21.97s16.79-9.84,16.79-21.97c.05-4.71-1.16-9.34-3.5-13.43,4.67-8.34,4.67-18.51,0-26.86,4.67-8.34,4.67-18.51,0-26.86,4.67-8.34,4.67-18.51,0-26.86Z"/><ellipse class="cls-4" cx="925.78" cy="569.62" rx="16.79" ry="21.97"/><ellipse class="cls-4" cx="925.78" cy="542.76" rx="16.79" ry="21.97"/><path class="cls-1" d="M988.62,358.97c2.29-2.92,4.38-5.99,6.25-9.2l-44.11-7.24,47.7,.35c9.25-20.12,9.8-43.17,1.54-63.71l-64,33.2,59.02-43.39c-22.24-38.44-71.44-51.57-109.87-29.32-38.44,22.24-51.57,71.44-29.32,109.87,1.91,3.29,4.04,6.45,6.39,9.44-3.57,4.54-6.65,9.46-9.17,14.66l57.25,29.75-61.05-20.49c-8.71,25.74-3.83,54.14,12.96,75.51-27.45,34.9-21.41,85.45,13.49,112.91,34.9,27.45,85.45,21.41,112.91-13.49,22.94-29.17,22.94-70.25,0-99.42,22.94-29.17,22.94-70.25,0-99.43h0Z"/><path class="cls-1" d="M845.01,408.68c-.03,18.04,6.04,35.55,17.21,49.71-27.45,34.9-21.41,85.45,13.49,112.91,34.9,27.45,85.45,21.41,112.91-13.49,22.94-29.17,22.94-70.25,0-99.42,10.78-13.68-143.6-58.74-143.6-49.71Z"/><path class="cls-6" d="M988.62,358.97c2.29-2.92,4.38-5.99,6.25-9.2l-44.11-7.24,47.7,.35c9.25-20.12,9.8-43.17,1.54-63.71l-64,33.2,59.02-43.39c-22.24-38.44-71.44-51.57-109.87-29.32-38.44,22.24-51.57,71.44-29.32,109.87,1.91,3.29,4.04,6.45,6.39,9.44-3.57,4.54-6.65,9.46-9.17,14.66l57.25,29.75-61.05-20.49c-8.71,25.74-3.83,54.14,12.96,75.51-27.45,34.9-21.41,85.45,13.49,112.91,34.9,27.45,85.45,21.41,112.91-13.49,22.94-29.17,22.94-70.25,0-99.42,22.94-29.17,22.94-70.25,0-99.43h0Z"/><path class="cls-8" d="M845.01,408.68c-.03,18.04,6.04,35.55,17.21,49.71-27.45,34.9-21.41,85.45,13.49,112.91,34.9,27.45,85.45,21.41,112.91-13.49,22.94-29.17,22.94-70.25,0-99.42,10.78-13.68-143.6-58.74-143.6-49.71Z"/><path class="cls-4" d="M94.06,609.91c2.34-4.09,3.55-8.72,3.5-13.43,0-12.14-7.52-21.97-16.79-21.97s-16.79,9.84-16.79,21.97c-.05,4.71,1.16,9.34,3.5,13.43-4.67,8.34-4.67,18.51,0,26.86-4.67,8.34-4.67,18.51,0,26.86-4.67,8.34-4.67,18.51,0,26.86-2.34,4.09-3.55,8.72-3.5,13.43,0,12.14,7.52,21.97,16.79,21.97s16.79-9.84,16.79-21.97c.05-4.71-1.16-9.34-3.5-13.43,4.67-8.34,4.67-18.51,0-26.86,4.67-8.34,4.67-18.51,0-26.86,4.67-8.34,4.67-18.51,0-26.86Z"/><ellipse class="cls-4" cx="80.78" cy="569.62" rx="16.79" ry="21.97"/><ellipse class="cls-4" cx="80.78" cy="542.76" rx="16.79" ry="21.97"/><path class="cls-1" d="M143.62,358.97c2.29-2.92,4.38-5.99,6.25-9.2l-44.11-7.24,47.7,.35c9.25-20.12,9.8-43.17,1.54-63.71l-64,33.2,59.02-43.39c-22.24-38.44-71.44-51.57-109.87-29.32s-51.57,71.44-29.32,109.87c1.91,3.29,4.04,6.45,6.39,9.44-3.57,4.54-6.65,9.46-9.17,14.66l57.25,29.75-61.05-20.49c-8.71,25.74-3.83,54.14,12.96,75.51-27.45,34.9-21.41,85.45,13.49,112.91,34.9,27.45,85.45,21.41,112.91-13.49,22.94-29.17,22.94-70.25,0-99.42,22.94-29.17,22.94-70.25,0-99.43h0Z"/><path class="cls-1" d="M.01,408.68c-.03,18.04,6.04,35.55,17.21,49.71-27.45,34.9-21.41,85.45,13.49,112.91,34.9,27.45,85.45,21.41,112.91-13.49,22.94-29.17,22.94-70.25,0-99.42C154.39,444.71,.01,399.66,.01,408.68Z"/><path class="cls-6" d="M143.62,358.97c2.29-2.92,4.38-5.99,6.25-9.2l-44.11-7.24,47.7,.35c9.25-20.12,9.8-43.17,1.54-63.71l-64,33.2,59.02-43.39c-22.24-38.44-71.44-51.57-109.87-29.32s-51.57,71.44-29.32,109.87c1.91,3.29,4.04,6.45,6.39,9.44-3.57,4.54-6.65,9.46-9.17,14.66l57.25,29.75-61.05-20.49c-8.71,25.74-3.83,54.14,12.96,75.51-27.45,34.9-21.41,85.45,13.49,112.91,34.9,27.45,85.45,21.41,112.91-13.49,22.94-29.17,22.94-70.25,0-99.42,22.94-29.17,22.94-70.25,0-99.43h0Z"/><path class="cls-8" d="M.01,408.68c-.03,18.04,6.04,35.55,17.21,49.71-27.45,34.9-21.41,85.45,13.49,112.91,34.9,27.45,85.45,21.41,112.91-13.49,22.94-29.17,22.94-70.25,0-99.42C154.39,444.71,.01,399.66,.01,408.68Z"/></svg>